<svg width="119" height="155" xmlns="http://www.w3.org/2000/svg">
 <!-- Created with Method Draw - http://github.com/duopixel/Method-Draw/ -->
 <g>
  <title>background</title>
  <rect fill="#fff" id="canvas_background" height="157" width="121" y="-1" x="-1"/>
  <g display="none" overflow="visible" y="0" x="0" height="100%" width="100%" id="canvasGrid">
   <rect fill="url(#gridpattern)" stroke-width="0" y="0" x="0" height="100%" width="100%"/>
  </g>
 </g>
 <g>
  <title>Layer 1</title>
  <path id="svg_1" d="m101.1426,26.64044c-0.38701,-14.3531 -13.74106,-25.88313 -30.16208,-25.89044c-10.97786,0.00731 -20.56581,5.16346 -25.83418,12.86477c-2.47606,-1.19579 -5.32664,-1.89424 -8.36449,-1.89424c-9.48391,0.00731 -17.19921,6.60791 -17.54461,14.86872c-9.95831,2.87427 -17.16592,11.06194 -17.17424,20.7928c0,12.11146 11.18178,21.94105 24.96861,21.94105l0,-0.00731l66.06278,0c13.78267,0 24.96861,-9.82959 24.96861,-21.94105c-0.01665,-9.64675 -7.09941,-17.79785 -16.9204,-20.7343zm-8.05654,35.36898l-66.05861,0c-9.19261,-0.02194 -16.63326,-6.55672 -16.6499,-14.62737c-0.00833,-7.25152 6.03408,-13.23411 13.9408,-14.38236c1.10278,-0.15724 2.08904,-0.6948 2.73407,-1.51393c0.64502,-0.81182 0.88222,-1.81745 0.67831,-2.78652c-0.11652,-0.54487 -0.18726,-1.05317 -0.18726,-1.5505c0.01664,-4.47963 4.14062,-8.10722 9.23838,-8.11453c2.69245,0 5.06447,1.0166 6.79562,2.67315c0.96962,0.93981 2.44277,1.37132 3.85765,1.13362c1.42321,-0.24135 2.60506,-1.1263 3.11276,-2.30746c3.11691,-7.28443 11.07774,-12.47715 20.4368,-12.46984c12.05984,0.01463 21.82257,8.59724 21.8517,19.19843c0,0.58509 -0.03745,1.18847 -0.1082,1.81379c-0.20807,1.89424 1.26924,3.59833 3.38741,3.94573c7.73611,1.26161 13.62038,7.18935 13.61205,14.34579c-0.0208,8.08528 -7.44897,14.62006 -16.64158,14.642z" stroke-width="1.5" stroke="#000" fill="#84D3DB"/>
  <text transform="matrix(1,0,0,1,0,0) " xml:space="preserve" text-anchor="start" font-family="'League Gothic', sans-serif" font-size="24" id="svg_2" y="90.918" x="0" fill-opacity="null" stroke-opacity="null" stroke-width="0" stroke="#000" fill="#000000">Luis Amigo</text>
  <path stroke="#000" id="svg_9" d="m39.24115,96.42939l41.37269,0l0,0c5.41994,0 9.81366,3.58172 9.81366,8c0,4.41827 -4.39372,8 -9.81366,8l-41.37269,0l0,0c-5.41993,0 -9.81365,-3.58173 -9.81365,-8c0,-4.41828 4.39372,-8 9.81365,-8z" stroke-opacity="null" stroke-width="1.5" fill="#5B9BA2"/>
  <path stroke="#000" id="svg_10" d="m29.745777,117.42939l60.363435,0l0,0c7.907782,0 14.318291,3.58172 14.318291,8c0,4.41827 -6.41051,8 -14.318291,8l-60.363435,0l0,0c-7.907767,0 -14.318277,-3.58173 -14.318277,-8c0,-4.41828 6.41051,-8 14.318277,-8z" stroke-opacity="null" stroke-width="1.5" fill="#5B9BA2"/>
  <path stroke="#000" id="svg_11" d="m21.606885,138.42939l76.641215,0l0,0c10.040217,0 18.179404,3.58172 18.179404,8c0,4.41827 -8.139186,8 -18.179404,8l-76.641215,0l0,0c-10.040199,0 -18.179385,-3.58173 -18.179385,-8c0,-4.41828 8.139186,-8 18.179385,-8z" stroke-opacity="null" stroke-width="1.5" fill="#5B9BA2"/>
 </g>
</svg>