<svg xmlns="http://www.w3.org/2000/svg" xmlns:xlink="http://www.w3.org/1999/xlink" width="1300px" height="630px" viewBox="0 0 1300 630" preserveAspectRatio="xMidYMid meet"  ><rect id="svgEditorBackground" x="0" y="0" width="1300" height="630" style="fill: none; stroke: none;"/><defs id="svgEditorDefs"><polygon id="svgEditorShapeDefs" style="fill:khaki;stroke:black;vector-effect:non-scaling-stroke;stroke-width:1px;"/></defs><text style="fill:black;font-family:Arial;font-size:20px;" x="83" y="69" id="e1_texte" >Luis Amigo Peñaloza</text><g stroke="none" transform="matrix(2.78677 0 0 2.78677 60.3626 -89.3242)" id="e3_shape"><rect fill="#039BE5" height="2" width="14" x="32.071201324450556" y="73.85471343993412"/><rect fill="#039BE5" height="2" width="22" x="28.071193695056028" y="77.85473632811771"/><rect fill="#039BE5" height="2" width="30" x="24.071184158312864" y="81.85473632811771"/><rect fill="#039BE5" height="2" width="38" x="20.07118225096423" y="85.85473632811771"/><path d="M49.35351066122249,33.09491492571152c-0.39999999999999875,0,-0.7999999999999973,0,-1.2000000000000028,0.09999999999999966c-0.8999999999999987,-4.6,-4.8999999999999995,-8.1,-9.799999999999997,-8.1c-4.100000000000001,0,-7.600000000000001,2.5,-9.2,6c-0.30000000000000077,0,-0.5,0,-0.8000000000000007,0c-4.4,0,-8,3.5999999999999996,-8,8s3.5999999999999996,8,8,8c2.3999999999999986,0,18.5,0,21,0c3.8999999999999986,0,7,-3.1000000000000014,7,-7c0,-3.8999999999999986,-3.1000000000000014,-7,-7,-7Z" fill="#81D4FA"/><path d="M43.07118619428361,65.85472081632031c0,-2.1999999999999993,-1.8000000000000007,-4,-4,-4s-4,1.8000000000000007,-4,4c0,0.5,0,6,0,6h8c0,0,0,-5.5,0,-6Z" fill="#039BE5"/></g></svg>