<svg xmlns="http://www.w3.org/2000/svg" xmlns:xlink="http://www.w3.org/1999/xlink" width="1300px" height="630px" viewBox="0 0 1300 630" preserveAspectRatio="xMidYMid meet"  ><rect id="svgEditorBackground" x="0" y="0" width="1300" height="630" style="fill: none; stroke: none;"/><defs id="svgEditorDefs"><polygon id="svgEditorShapeDefs" style="fill:khaki;stroke:black;vector-effect:non-scaling-stroke;stroke-width:1px;"/></defs><text style="fill:black;font-family:Arial;font-size:20px;" x="303" y="138" id="e1_texte" transform="matrix(1 0 0 1 -116 37)">Luis Amigo Peñaloza</text><g stroke="none" transform="matrix(2.78677 0 0 2.78677 -55.6374 -52.3242)" id="e3_shape"><rect fill="#039BE5" height="2" width="14" x="111.01551818847656" y="98.614501953125"/><rect fill="#039BE5" height="2" width="22" x="107.01551055908203" y="102.6145248413086"/><rect fill="#039BE5" height="2" width="30" x="103.01549530029297" y="106.6145248413086"/><rect fill="#039BE5" height="2" width="38" x="99.01549530029297" y="110.6145248413086"/><path d="M128.29781929794626,60.72542294856486c-0.40000000000000574,0,-0.8000000000000044,0,-1.20000000000001,0.10000000000000142c-0.8999999999999987,-4.600000000000001,-4.8999999999999995,-8.100000000000001,-9.79999999999999,-8.100000000000001c-4.1000000000000085,0,-7.6000000000000085,2.5,-9.200000000000006,6c-0.30000000000000077,0,-0.5,0,-0.8000000000000007,0c-4.3999999999999995,0,-8,3.6000000000000014,-8,8s3.6000000000000014,8,8,8c2.3999999999999986,0,18.5,0,21.000000000000007,0c3.8999999999999915,0,7,-3.1000000000000014,7,-7c0,-3.8999999999999986,-3.1000000000000085,-7,-7,-7Z" fill="#81D4FA"/><path d="M122.01549483100737,90.61452670692915c0,-2.1999999999999993,-1.8000000000000007,-4,-4,-4s-4,1.8000000000000007,-4,4c0,0.5,0,6,0,6h8c0,0,0,-5.5,0,-6Z" fill="#039BE5"/></g></svg>